<?xml version="1.0" encoding="UTF-8"?>
<svg xmlns="http://www.w3.org/2000/svg" version="1.1" viewBox="0 0 812.99 233.12">
  <defs>
    <style>
      .cls-1 {
        fill: #a77100;
      }

      .cls-2 {
        fill: #e21d00;
      }
    </style>
  </defs>
  <!-- Generator: Adobe Illustrator 28.6.0, SVG Export Plug-In . SVG Version: 1.2.0 Build 709)  -->
  <g>
    <g id="Layer_28">
      <g>
        <g>
          <path class="cls-2" d="M103.54,74.44c-.46-.2-.95-.25-1.42-.15l1.07,16.27.75,11.43,17.14-19.14-17.55-8.41Z"/>
          <path class="cls-2" d="M140.25,128.55l19.34-24.15c.91-1.14.52-2.82-.79-3.45l-17.97-8.62-.59,36.22Z"/>
          <path d="M66.69,147.74l16.63,9.57c.95.55,2.16.34,2.87-.5l9.81-11.64-2.08-31.98h0s0,0,0,0l10.03-11.2-1.82-27.7c-.43.09-.83.31-1.15.63l-39.34,41.75c-.41.44-.61.98-.62,1.53,0,.79.4,1.58,1.17,2l14.8,8.12c1.16.63,1.42,2.18.53,3.16l-11.39,12.79c-.39.43-.58.97-.58,1.5,0,.78.39,1.54,1.13,1.96Z"/>
          <path class="cls-1" d="M93.92,113.2"/>
          <path d="M140.25,128.55l.59-36.22-26.69,31.47.98,25.46,4.27,2.34c.96.53,2.17.29,2.85-.57l18-22.48Z"/>
          <path class="cls-2" d="M114.14,123.79l-20.22-10.59,2.08,31.98,2.5-2.95c.71-.83,1.9-1.05,2.85-.53l13.77,7.55-.98-25.46Z"/>
        </g>
        <g>
          <path d="M223.78,89.77c11.94,0,18.39,6.01,18.39,17.17s-6.45,17.17-18.39,17.17h-27.02v22.75c0,1.13-.61,1.83-1.66,1.83s-1.66-.7-1.66-1.83v-55.27c0-1.13.7-1.83,1.83-1.83h28.51ZM223.6,121.07c9.94,0,15.17-4.88,15.17-14.12s-5.23-14.12-15.17-14.12h-26.85v28.24h26.85Z"/>
          <path d="M255.77,93.7c0,1.39-.87,2.35-2.27,2.35s-2.27-.96-2.27-2.35.87-2.35,2.27-2.35,2.27.96,2.27,2.35ZM255.08,108.08v38.79c0,1.13-.52,1.83-1.57,1.83s-1.57-.7-1.57-1.83v-38.79c0-1.13.52-1.83,1.57-1.83s1.57.7,1.57,1.83Z"/>
          <path d="M302.76,145.56c.44.52.7.87.7,1.48,0,1.05-.7,1.66-1.66,1.66-.52,0-.87-.26-1.39-.79l-16.74-18.66-16.74,18.74c-.44.44-.78.7-1.31.7-1.05,0-1.66-.61-1.66-1.48,0-.52.09-.87.52-1.39l17-18.57-16.39-17.87c-.44-.52-.7-.87-.7-1.48,0-1.05.7-1.66,1.66-1.66.52,0,.87.17,1.4.79l16.3,18.13,16.3-18.22c.44-.44.78-.7,1.31-.7,1.05,0,1.66.61,1.66,1.48,0,.52-.09.87-.52,1.39l-16.56,18.13,16.82,18.31Z"/>
          <path d="M340.95,94.65c0,.87-.61,1.48-1.48,1.48-.61,0-1.05-.26-1.4-.87-1.92-3.84-5.58-6.19-10.63-6.19-7.5,0-11.94,4.71-11.94,12.81v4.88h20.92c.96,0,1.66.61,1.66,1.48,0,.96-.7,1.48-1.66,1.48h-20.92v37.14c0,1.13-.52,1.83-1.57,1.83s-1.57-.7-1.57-1.83v-44.98c0-9.76,5.58-15.78,14.82-15.78,6.36,0,11.16,2.79,13.51,7.58.17.35.26.7.26.96Z"/>
          <path d="M361.26,105.73c12.81,0,21.62,8.8,21.62,21.79s-8.8,21.71-21.62,21.71-21.71-8.8-21.71-21.71,8.89-21.79,21.71-21.79ZM361.26,146.26c10.9,0,18.39-7.58,18.39-18.74s-7.5-18.83-18.39-18.83-18.48,7.58-18.48,18.83,7.58,18.74,18.48,18.74Z"/>
          <path d="M414.7,107.56c0,1.05-.7,1.48-1.66,1.48-10.81,0-17,7.32-17,20.92v16.91c0,1.13-.52,1.83-1.57,1.83s-1.57-.7-1.57-1.83v-38.79c0-1.13.52-1.83,1.57-1.83s1.57.7,1.57,1.83v8.28h.17c2.96-6.8,8.63-10.37,16.82-10.37.96,0,1.66.52,1.66,1.57Z"/>
          <path d="M457.76,145.74c.44.52.52.87.52,1.39,0,.87-.61,1.57-1.57,1.57-.61,0-.96-.17-1.39-.7l-19.79-22.67-10.55,7.93v13.6c0,1.13-.52,1.83-1.57,1.83s-1.57-.7-1.57-1.83v-58.41c0-1.13.52-1.83,1.57-1.83s1.57.7,1.57,1.83v41.06l30.16-22.75c.44-.35.7-.52,1.22-.52.87,0,1.48.61,1.48,1.66,0,.52-.17.87-.7,1.31l-19.18,14.3,19.79,22.23Z"/>
          <path d="M532.3,109.39v35.65c0,12.64-8.19,20.4-21.62,20.4-8.37,0-15.43-2.62-18.57-6.89-.44-.61-.61-1.13-.61-1.83,0-1.66,1.13-2.88,2.88-2.88.7,0,1.31.26,1.83.79,3.05,3.49,7.85,5.4,14.3,5.4,9.76,0,15.78-5.58,15.78-14.73v-4.45h-.17c-3.4,4.97-9.24,7.58-16.82,7.58-12.38,0-20.83-8.54-20.83-21.45s8.46-21.36,20.83-21.36c7.5,0,13.42,2.7,16.82,7.58h.17v-3.83c0-2.09,1.13-3.23,3.05-3.23s2.96,1.13,2.96,3.23ZM526.29,127c0-9.5-6.45-15.95-15.95-15.95s-15.78,6.45-15.78,15.95,6.36,16.04,15.78,16.04,15.95-6.45,15.95-16.04Z"/>
          <path d="M583.47,109.39v36.09c0,2-1.05,3.23-2.96,3.23s-3.05-1.22-3.05-3.23v-4.1h-.17c-3.31,4.97-9.15,7.85-16.65,7.85-12.55,0-21.01-8.72-21.01-21.79s8.46-21.79,21.01-21.79c7.5,0,13.34,2.88,16.65,7.85h.17v-4.1c0-2.09,1.13-3.23,3.05-3.23s2.96,1.13,2.96,3.23ZM577.46,127.43c0-9.68-6.54-16.39-15.87-16.39s-15.87,6.62-15.87,16.39,6.45,16.39,15.87,16.39,15.87-6.62,15.87-16.39Z"/>
          <path d="M656.79,124.21v21.27c0,2-1.13,3.23-3.05,3.23s-2.96-1.22-2.96-3.23v-20.75c0-8.89-3.75-13.69-10.98-13.69s-12.03,5.93-12.03,15.25v19.18c0,2-1.13,3.23-3.05,3.23s-2.96-1.22-2.96-3.23v-20.75c0-8.89-3.75-13.69-11.07-13.69s-11.94,5.93-11.94,15.25v19.18c0,2-1.13,3.23-2.96,3.23s-3.05-1.22-3.05-3.23v-36.09c0-2.09,1.13-3.23,3.05-3.23s2.96,1.13,2.96,3.23v2.79h.17c2.79-4.18,7.32-6.54,13.08-6.54,6.54,0,11.33,2.79,13.69,7.93h.17c2.79-5.06,7.76-7.93,14.91-7.93,10.63,0,16.04,6.45,16.04,18.57Z"/>
          <path d="M704.39,129.52h-33.3c.96,8.54,7.15,14.3,16.3,14.3,5.58,0,10.11-2.18,12.81-5.67.52-.7,1.39-1.22,2.44-1.22,1.66,0,2.79,1.13,2.79,2.79,0,.7-.17,1.22-.61,1.83-3.75,4.79-10.02,7.67-17.43,7.67-13.51,0-22.49-8.8-22.49-21.79s8.98-21.79,21.97-21.79,21.36,8.63,21.36,20.22c0,2.35-1.39,3.66-3.83,3.66ZM671.27,124.29h31.29c-1.22-7.93-7.24-13.25-15.69-13.25s-14.38,5.32-15.6,13.25Z"/>
          <path d="M732.81,124.12c13.86.09,18.74,3.83,18.74,12.2s-6.89,12.9-18.31,12.9c-8.46,0-14.56-1.92-18.66-5.93-.61-.61-.87-1.39-.87-2.18,0-1.74,1.22-2.88,2.7-2.88,1.13,0,1.83.52,2.53,1.13,3.14,2.79,8.11,4.36,13.95,4.36,7.85,0,12.64-2.88,12.64-7.5,0-4.27-3.14-6.02-13.08-6.19-13.51-.26-18.13-3.57-18.13-11.42s7.15-12.99,18.13-12.99c7.06,0,12.29,1.57,16.13,4.88.7.61,1.05,1.31,1.05,2.44,0,1.66-1.13,2.88-2.7,2.88-.87,0-1.66-.35-2.27-.87-2.96-2.44-7.41-3.92-11.86-3.92-7.67,0-12.38,2.88-12.38,7.58,0,3.84,2.96,5.4,12.38,5.49Z"/>
        </g>
      </g>
    </g>
  </g>
</svg>