<?xml version="1.0" encoding="UTF-8"?>
<svg xmlns="http://www.w3.org/2000/svg" version="1.1" viewBox="0 0 403.1 255.73">
  <defs>
    <style>
      .cls-1 {
        fill: #a77100;
      }

      .cls-2 {
        fill: #e21d00;
      }
    </style>
  </defs>
  <!-- Generator: Adobe Illustrator 28.6.0, SVG Export Plug-In . SVG Version: 1.2.0 Build 709)  -->
  <g>
    <g id="Layer_28">
      <g>
        <g>
          <path d="M47.42,185.36c7.44,0,11.45,3.75,11.45,10.69s-4.02,10.69-11.45,10.69h-16.83v14.17c0,.71-.38,1.14-1.03,1.14s-1.03-.43-1.03-1.14v-34.41c0-.71.43-1.14,1.14-1.14h17.75ZM47.31,204.85c6.19,0,9.44-3.04,9.44-8.79s-3.26-8.79-9.44-8.79h-16.72v17.58h16.72Z"/>
          <path d="M67.34,187.81c0,.87-.54,1.46-1.41,1.46s-1.41-.6-1.41-1.46.54-1.47,1.41-1.47,1.41.6,1.41,1.47ZM66.91,196.76v24.15c0,.71-.33,1.14-.98,1.14s-.98-.43-.98-1.14v-24.15c0-.71.33-1.14.98-1.14s.98.43.98,1.14Z"/>
          <path d="M96.6,220.1c.27.33.43.54.43.92,0,.65-.43,1.03-1.03,1.03-.33,0-.54-.16-.87-.49l-10.42-11.61-10.42,11.67c-.27.27-.49.43-.81.43-.65,0-1.03-.38-1.03-.92,0-.33.05-.54.33-.87l10.58-11.56-10.2-11.13c-.27-.33-.43-.54-.43-.92,0-.65.43-1.03,1.03-1.03.33,0,.54.11.87.49l10.15,11.29,10.15-11.34c.27-.27.49-.43.81-.43.65,0,1.03.38,1.03.92,0,.33-.05.54-.33.87l-10.31,11.29,10.48,11.4Z"/>
          <path d="M120.37,188.4c0,.54-.38.92-.92.92-.38,0-.65-.16-.87-.54-1.19-2.39-3.47-3.85-6.62-3.85-4.67,0-7.44,2.93-7.44,7.98v3.04h13.03c.6,0,1.03.38,1.03.92,0,.6-.43.92-1.03.92h-13.03v23.12c0,.71-.33,1.14-.98,1.14s-.98-.43-.98-1.14v-28.01c0-6.08,3.47-9.82,9.23-9.82,3.96,0,6.95,1.74,8.41,4.72.11.22.16.43.16.6Z"/>
          <path d="M133.02,195.3c7.98,0,13.46,5.48,13.46,13.57s-5.48,13.51-13.46,13.51-13.51-5.48-13.51-13.51,5.54-13.57,13.51-13.57ZM133.02,220.53c6.78,0,11.45-4.72,11.45-11.67s-4.67-11.72-11.45-11.72-11.51,4.72-11.51,11.72,4.72,11.67,11.51,11.67Z"/>
          <path d="M166.29,196.44c0,.65-.43.92-1.03.92-6.73,0-10.58,4.56-10.58,13.03v10.53c0,.71-.33,1.14-.98,1.14s-.98-.43-.98-1.14v-24.15c0-.71.33-1.14.98-1.14s.98.43.98,1.14v5.16h.11c1.84-4.23,5.37-6.46,10.47-6.46.6,0,1.03.33,1.03.98Z"/>
          <path d="M193.11,220.21c.27.33.33.54.33.87,0,.54-.38.98-.98.98-.38,0-.6-.11-.87-.43l-12.32-14.11-6.57,4.94v8.47c0,.71-.33,1.14-.98,1.14s-.98-.43-.98-1.14v-36.36c0-.71.33-1.14.98-1.14s.98.43.98,1.14v25.56l18.78-14.17c.27-.22.43-.33.76-.33.54,0,.92.38.92,1.03,0,.33-.11.54-.43.81l-11.94,8.9,12.32,13.84Z"/>
          <path d="M239.41,196.76v23.23c0,7.76-5.05,12.48-13.24,12.48-5.1,0-9.5-1.68-11.51-4.4-.16-.22-.22-.43-.22-.65,0-.54.38-.98.98-.98.38,0,.6.16.76.38,1.9,2.39,5.43,3.8,9.99,3.8,7.06,0,11.29-4.02,11.29-10.64v-4.07h-.11c-2.06,3.91-6.13,6.35-11.62,6.35-7.87,0-13.3-5.48-13.3-13.51s5.43-13.46,13.3-13.46c5.48,0,9.55,2.44,11.62,6.3h.11v-4.83c0-.71.38-1.14.98-1.14s.98.43.98,1.14ZM237.45,208.76c0-6.89-4.67-11.62-11.56-11.62s-11.45,4.72-11.45,11.62,4.67,11.67,11.45,11.67,11.56-4.72,11.56-11.67Z"/>
          <path d="M271.49,196.76v24.15c0,.71-.33,1.14-.92,1.14-.65,0-1.03-.43-1.03-1.14v-4.94h-.11c-2.06,4.07-6.19,6.4-11.62,6.4-7.87,0-13.3-5.48-13.3-13.51s5.43-13.57,13.3-13.57c5.43,0,9.55,2.33,11.62,6.41h.11v-4.94c0-.71.38-1.14,1.03-1.14.6,0,.92.43.92,1.14ZM269.53,208.86c0-6.95-4.67-11.72-11.51-11.72s-11.51,4.72-11.51,11.72,4.72,11.67,11.51,11.67,11.51-4.72,11.51-11.67Z"/>
          <path d="M317.57,206.91v14c0,.71-.33,1.14-.98,1.14-.6,0-.98-.43-.98-1.14v-13.84c0-6.51-2.77-9.93-8.03-9.93s-8.79,4.29-8.79,11.02v12.75c0,.71-.38,1.14-1.03,1.14-.6,0-.92-.43-.92-1.14v-13.84c0-6.51-2.77-9.93-8.09-9.93s-8.79,4.29-8.79,11.02v12.75c0,.71-.33,1.14-.98,1.14s-.98-.43-.98-1.14v-24.15c0-.71.33-1.14.98-1.14s.98.43.98,1.14v3.91h.11c1.68-3.42,4.83-5.37,9.01-5.37,4.56,0,7.71,2.23,8.96,6.41h.11c1.57-4.02,4.88-6.41,9.66-6.41,6.4,0,9.77,4.07,9.77,11.62Z"/>
          <path d="M349.87,208.32c0,.65-.49,1.14-1.14,1.14h-23.66c.27,6.62,4.94,11.07,11.83,11.07,4.02,0,7.27-1.68,9.28-4.23.27-.33.54-.43.87-.43.54,0,.98.43.98.92,0,.22-.05.43-.27.71-2.33,2.99-6.24,4.88-10.85,4.88-8.3,0-13.84-5.48-13.84-13.51s5.54-13.57,13.51-13.57,13.3,5.37,13.3,13.03ZM325.12,207.62h22.85c-.54-6.3-5.05-10.48-11.4-10.48s-10.91,4.18-11.45,10.48Z"/>
          <path d="M365.23,207.62c8.68.11,11.56,2.12,11.56,6.95s-4.12,7.82-11.4,7.82c-5.21,0-9.12-1.36-11.56-4.02-.16-.16-.27-.38-.27-.71,0-.6.43-.98.92-.98.38,0,.6.16.81.38,2.01,2.23,5.7,3.47,10.04,3.47,6.08,0,9.5-2.17,9.5-5.97,0-3.47-2.44-4.88-9.71-4.99-8.3-.11-11.13-1.95-11.13-6.46,0-4.83,4.29-7.82,11.18-7.82,4.18,0,7.76,1.25,10.09,3.53.22.22.33.43.33.76,0,.6-.38.98-.92.98-.27,0-.54-.11-.76-.33-1.95-1.95-5.21-3.09-8.68-3.09-5.75,0-9.28,2.28-9.28,5.97,0,3.2,2.23,4.4,9.28,4.5Z"/>
        </g>
        <g>
          <path class="cls-2" d="M200.29,22.26c-.59-.26-1.23-.32-1.83-.19l1.38,20.95.97,14.71,22.07-24.64-22.59-10.83Z"/>
          <path class="cls-2" d="M247.54,91.91l24.9-31.09c1.17-1.46.68-3.63-1.01-4.44l-23.13-11.09-.76,46.63Z"/>
          <path d="M152.85,116.61l21.41,12.32c1.22.71,2.78.43,3.69-.64l12.62-14.98-2.68-41.17h0s0,0,0,0l12.91-14.41-2.35-35.66c-.55.12-1.07.4-1.48.82l-50.64,53.74c-.53.56-.79,1.27-.79,1.97,0,1.02.52,2.03,1.51,2.58l19.05,10.45c1.49.82,1.82,2.81.69,4.07l-14.66,16.46c-.5.56-.74,1.25-.74,1.93,0,1,.51,1.98,1.46,2.53Z"/>
          <path class="cls-1" d="M187.9,72.15"/>
          <path d="M247.54,91.91l.76-46.63-34.36,40.5,1.26,32.77,5.5,3.02c1.24.68,2.79.37,3.67-.73l23.17-28.94Z"/>
          <path class="cls-2" d="M213.94,85.79l-26.03-13.63,2.68,41.17,3.22-3.8c.91-1.07,2.44-1.35,3.67-.68l17.72,9.72-1.26-32.77Z"/>
        </g>
      </g>
    </g>
  </g>
</svg>