<?xml version="1.0" encoding="UTF-8"?>
<svg xmlns="http://www.w3.org/2000/svg" version="1.1" viewBox="0 0 1435.3 1500">
  <defs>
    <style>
      .cls-1 {
        fill: #a77100;
      }

      .cls-2 {
        fill: #e21d00;
      }
    </style>
  </defs>
  <!-- Generator: Adobe Illustrator 28.6.0, SVG Export Plug-In . SVG Version: 1.2.0 Build 709)  -->
  <g>
    <g id="Layer_28">
      <g>
        <path class="cls-2" d="M651.9,209.06c-5.74-2.56-11.98-3.13-17.86-1.86l13.48,204.86,9.47,143.87,215.79-240.97-220.87-105.9Z"/>
        <path class="cls-2" d="M1113.96,890.12l243.51-304.06c11.45-14.3,6.61-35.53-9.91-43.45l-226.2-108.46-7.4,455.97Z"/>
        <path d="M187.99,1131.74l209.36,120.52c11.98,6.9,27.17,4.25,36.12-6.29l123.45-146.46-26.17-402.57h0s0-.03,0-.03l126.23-140.97-22.94-348.73c-5.39,1.16-10.46,3.87-14.5,7.99L124.3,740.75c-5.18,5.5-7.69,12.39-7.75,19.23-.07,10,5.09,19.89,14.77,25.2l186.31,102.21c14.56,7.99,17.85,27.47,6.71,39.79l-143.35,160.95c-4.9,5.47-7.24,12.2-7.26,18.88-.01,9.76,4.96,19.38,14.26,24.73Z"/>
        <path class="cls-1" d="M530.75,696.93"/>
        <path d="M1113.96,890.12l7.4-455.97-336.03,396.11,12.33,320.5,53.78,29.5c12.12,6.65,27.26,3.63,35.9-7.16l226.62-282.98Z"/>
        <path class="cls-2" d="M785.33,830.26l-254.58-133.32,26.17,402.58,31.53-37.17c8.88-10.47,23.89-13.24,35.93-6.64l173.28,95.06-12.33-320.5Z"/>
      </g>
    </g>
  </g>
</svg>