<?xml version="1.0" encoding="UTF-8"?>
<svg xmlns="http://www.w3.org/2000/svg" version="1.1" viewBox="55 65 705 110">
  <defs>
    <style>
      .cls-1 {
        fill: #fff;
      }
    </style>
  </defs>
  <!-- Generator: Adobe Illustrator 28.6.0, SVG Export Plug-In . SVG Version: 1.2.0 Build 709)  -->
  <g>
    <g id="Layer_28">
      <g>
        <g>
          <path class="cls-1" d="M223.57,90.23c11.94,0,18.39,6.01,18.39,17.17s-6.45,17.17-18.39,17.17h-27.02v22.75c0,1.13-.61,1.83-1.66,1.83s-1.66-.7-1.66-1.83v-55.27c0-1.13.7-1.83,1.83-1.83h28.51ZM223.4,121.52c9.94,0,15.17-4.88,15.17-14.12s-5.23-14.12-15.17-14.12h-26.85v28.24h26.85Z"/>
          <path class="cls-1" d="M255.57,94.15c0,1.39-.87,2.35-2.27,2.35s-2.27-.96-2.27-2.35.87-2.35,2.27-2.35,2.27.96,2.27,2.35ZM254.87,108.53v38.79c0,1.13-.52,1.83-1.57,1.83s-1.57-.7-1.57-1.83v-38.79c0-1.13.52-1.83,1.57-1.83s1.57.7,1.57,1.83Z"/>
          <path class="cls-1" d="M302.56,146.02c.44.52.7.87.7,1.48,0,1.05-.7,1.66-1.66,1.66-.52,0-.87-.26-1.39-.79l-16.74-18.66-16.74,18.74c-.44.44-.78.7-1.31.7-1.05,0-1.66-.61-1.66-1.48,0-.52.09-.87.52-1.39l17-18.57-16.39-17.87c-.44-.52-.7-.87-.7-1.48,0-1.05.7-1.66,1.66-1.66.52,0,.87.17,1.4.79l16.3,18.13,16.3-18.22c.44-.44.78-.7,1.31-.7,1.05,0,1.66.61,1.66,1.48,0,.52-.09.87-.52,1.39l-16.56,18.13,16.82,18.31Z"/>
          <path class="cls-1" d="M340.74,95.11c0,.87-.61,1.48-1.48,1.48-.61,0-1.05-.26-1.4-.87-1.92-3.84-5.58-6.19-10.63-6.19-7.5,0-11.94,4.71-11.94,12.81v4.88h20.92c.96,0,1.66.61,1.66,1.48,0,.96-.7,1.48-1.66,1.48h-20.92v37.14c0,1.13-.52,1.83-1.57,1.83s-1.57-.7-1.57-1.83v-44.98c0-9.76,5.58-15.78,14.82-15.78,6.36,0,11.16,2.79,13.51,7.58.17.35.26.7.26.96Z"/>
          <path class="cls-1" d="M361.06,106.18c12.81,0,21.62,8.8,21.62,21.79s-8.8,21.71-21.62,21.71-21.71-8.8-21.71-21.71,8.89-21.79,21.71-21.79ZM361.06,146.71c10.9,0,18.39-7.58,18.39-18.74s-7.5-18.83-18.39-18.83-18.48,7.58-18.48,18.83,7.58,18.74,18.48,18.74Z"/>
          <path class="cls-1" d="M414.5,108.01c0,1.05-.7,1.48-1.66,1.48-10.81,0-17,7.32-17,20.92v16.91c0,1.13-.52,1.83-1.57,1.83s-1.57-.7-1.57-1.83v-38.79c0-1.13.52-1.83,1.57-1.83s1.57.7,1.57,1.83v8.28h.17c2.96-6.8,8.63-10.37,16.82-10.37.96,0,1.66.52,1.66,1.57Z"/>
          <path class="cls-1" d="M457.56,146.19c.44.52.52.87.52,1.39,0,.87-.61,1.57-1.57,1.57-.61,0-.96-.17-1.39-.7l-19.79-22.67-10.55,7.93v13.6c0,1.13-.52,1.83-1.57,1.83s-1.57-.7-1.57-1.83v-58.41c0-1.13.52-1.83,1.57-1.83s1.57.7,1.57,1.83v41.06l30.16-22.75c.44-.35.7-.52,1.22-.52.87,0,1.48.61,1.48,1.66,0,.52-.17.87-.7,1.31l-19.18,14.3,19.79,22.23Z"/>
          <path class="cls-1" d="M532.1,109.84v35.65c0,12.64-8.19,20.4-21.62,20.4-8.37,0-15.43-2.62-18.57-6.89-.44-.61-.61-1.13-.61-1.83,0-1.66,1.13-2.88,2.88-2.88.7,0,1.31.26,1.83.79,3.05,3.49,7.85,5.4,14.3,5.4,9.76,0,15.78-5.58,15.78-14.73v-4.45h-.17c-3.4,4.97-9.24,7.58-16.82,7.58-12.38,0-20.83-8.54-20.83-21.45s8.46-21.36,20.83-21.36c7.5,0,13.42,2.7,16.82,7.58h.17v-3.83c0-2.09,1.13-3.23,3.05-3.23s2.96,1.13,2.96,3.23ZM526.08,127.45c0-9.5-6.45-15.95-15.95-15.95s-15.78,6.45-15.78,15.95,6.36,16.04,15.78,16.04,15.95-6.45,15.95-16.04Z"/>
          <path class="cls-1" d="M583.27,109.84v36.09c0,2-1.05,3.23-2.96,3.23s-3.05-1.22-3.05-3.23v-4.1h-.17c-3.31,4.97-9.15,7.85-16.65,7.85-12.55,0-21.01-8.72-21.01-21.79s8.46-21.79,21.01-21.79c7.5,0,13.34,2.88,16.65,7.85h.17v-4.1c0-2.09,1.13-3.23,3.05-3.23s2.96,1.13,2.96,3.23ZM577.26,127.89c0-9.68-6.54-16.39-15.87-16.39s-15.87,6.62-15.87,16.39,6.45,16.39,15.87,16.39,15.87-6.62,15.87-16.39Z"/>
          <path class="cls-1" d="M656.59,124.66v21.27c0,2-1.13,3.23-3.05,3.23s-2.96-1.22-2.96-3.23v-20.75c0-8.89-3.75-13.69-10.98-13.69s-12.03,5.93-12.03,15.25v19.18c0,2-1.13,3.23-3.05,3.23s-2.96-1.22-2.96-3.23v-20.75c0-8.89-3.75-13.69-11.07-13.69s-11.94,5.93-11.94,15.25v19.18c0,2-1.13,3.23-2.96,3.23s-3.05-1.22-3.05-3.23v-36.09c0-2.09,1.13-3.23,3.05-3.23s2.96,1.13,2.96,3.23v2.79h.17c2.79-4.18,7.32-6.54,13.08-6.54,6.54,0,11.33,2.79,13.69,7.93h.17c2.79-5.06,7.76-7.93,14.91-7.93,10.63,0,16.04,6.45,16.04,18.57Z"/>
          <path class="cls-1" d="M704.19,129.98h-33.3c.96,8.54,7.15,14.3,16.3,14.3,5.58,0,10.11-2.18,12.81-5.67.52-.7,1.39-1.22,2.44-1.22,1.66,0,2.79,1.13,2.79,2.79,0,.7-.17,1.22-.61,1.83-3.75,4.79-10.02,7.67-17.43,7.67-13.51,0-22.49-8.8-22.49-21.79s8.98-21.79,21.97-21.79,21.36,8.63,21.36,20.22c0,2.35-1.39,3.66-3.83,3.66ZM671.06,124.75h31.29c-1.22-7.93-7.24-13.25-15.69-13.25s-14.38,5.32-15.6,13.25Z"/>
          <path class="cls-1" d="M732.61,124.57c13.86.09,18.74,3.83,18.74,12.2s-6.89,12.9-18.31,12.9c-8.46,0-14.56-1.92-18.66-5.93-.61-.61-.87-1.39-.87-2.18,0-1.74,1.22-2.88,2.7-2.88,1.13,0,1.83.52,2.53,1.13,3.14,2.79,8.11,4.36,13.95,4.36,7.85,0,12.64-2.88,12.64-7.5,0-4.27-3.14-6.02-13.08-6.19-13.51-.26-18.13-3.57-18.13-11.42s7.15-12.99,18.13-12.99c7.06,0,12.29,1.57,16.13,4.88.7.61,1.05,1.31,1.05,2.44,0,1.66-1.13,2.88-2.7,2.88-.87,0-1.66-.35-2.27-.87-2.96-2.44-7.41-3.92-11.86-3.92-7.67,0-12.38,2.88-12.38,7.58,0,3.84,2.96,5.4,12.38,5.49Z"/>
        </g>
        <path class="cls-1" d="M159.03,102.89c-.18-.78-.69-1.43-1.4-1.78l-17.81-8.78-26.04,31.55-19.04-10.25,26.53-30.45-17.58-8.66c-.51-.24-1.08-.3-1.63-.17-.5.11-.96.37-1.32.75l-38.39,41.88c-.45.49-.7,1.12-.7,1.79,0,.98.51,1.88,1.34,2.34l14.44,8.14c.43.24.73.67.82,1.17.09.51-.06,1.02-.4,1.41l-11.11,12.82c-.42.48-.66,1.11-.66,1.76,0,.95.5,1.83,1.29,2.3l16.23,9.6c.41.24.86.36,1.3.36.75,0,1.48-.33,1.99-.95l12.02-14.63c.56-.69,1.53-.87,2.3-.44l17.6,9.93c1.11.62,2.49.34,3.27-.67l36.45-46.78c.5-.64.68-1.46.5-2.26ZM102.63,75.05c.25,0,.5.05.74.16l16.67,8.22-16.15,18.53-1.72-26.84s.04-.02.06-.02c.13-.03.26-.04.39-.04ZM98.32,142.62l-2,2.43h0s-.18.21-.18.21l-1.96-31.06,19.72,10.62.8,24.57-13.11-7.39c-1.09-.61-2.47-.35-3.27.62ZM157.93,104.67l-18.57,23.83.55-35.08.11-.14,17.26,8.51c.5.25.86.71.99,1.27.13.57,0,1.16-.35,1.62Z"/>
      </g>
    </g>
  </g>
</svg>