<?xml version="1.0" encoding="UTF-8"?>
<svg xmlns="http://www.w3.org/2000/svg" version="1.1" viewBox="0 0 848.15 546.94">
  <defs>
    <style>
      .cls-1 {
        fill: #a77100;
      }

      .cls-2 {
        fill: #fff;
      }

      .cls-3 {
        fill: #e21d00;
      }

      .cls-4 {
        display: none;
      }
    </style>
  </defs>
  <!-- Generator: Adobe Illustrator 28.6.0, SVG Export Plug-In . SVG Version: 1.2.0 Build 709)  -->
  <g>
    <g id="BG" class="cls-4">
      <rect x="0" width="848.15" height="546.94"/>
    </g>
    <g id="Layer_28">
      <g>
        <path class="cls-2" d="M569.16,140.98c-.89-3.92-3.49-7.17-7.12-8.91l-52.32-25.09-70.19,82.74-40.05-20.97,71.81-80.2-55.01-26.37c-2.58-1.15-5.41-1.45-8.17-.85-2.53.55-4.82,1.81-6.74,3.76l-103.64,109.99c-2.28,2.41-3.54,5.57-3.57,8.89-.03,4.83,2.57,9.28,6.81,11.6l37.03,20.31-28.53,32.03c-2.15,2.4-3.34,5.5-3.35,8.72,0,4.69,2.51,9.06,6.57,11.4l43.82,25.22c2.06,1.18,4.32,1.76,6.56,1.76,3.76,0,7.47-1.61,10.05-4.66l31.84-37.72,46.72,25.63c5.6,3.07,12.56,1.69,16.55-3.3l98.39-122.86c2.52-3.14,3.44-7.19,2.55-11.12Z"/>
        <g>
          <path class="cls-2" d="M100.48,402.45c15.22,0,23.44,7.67,23.44,21.89s-8.22,21.89-23.44,21.89h-34.44v29c0,1.44-.78,2.33-2.11,2.33s-2.11-.89-2.11-2.33v-70.44c0-1.44.89-2.33,2.33-2.33h36.33ZM100.25,442.34c12.67,0,19.33-6.22,19.33-18s-6.67-18-19.33-18h-34.22v36h34.22Z"/>
          <path class="cls-2" d="M141.25,407.45c0,1.78-1.11,3-2.89,3s-2.89-1.22-2.89-3,1.11-3,2.89-3,2.89,1.22,2.89,3ZM140.36,425.78v49.44c0,1.44-.67,2.33-2,2.33s-2-.89-2-2.33v-49.44c0-1.44.67-2.33,2-2.33s2,.89,2,2.33Z"/>
          <path class="cls-2" d="M201.13,473.56c.56.67.89,1.11.89,1.89,0,1.33-.89,2.11-2.11,2.11-.67,0-1.11-.33-1.78-1l-21.33-23.77-21.33,23.89c-.56.56-1,.89-1.67.89-1.33,0-2.11-.78-2.11-1.89,0-.67.11-1.11.67-1.78l21.66-23.66-20.89-22.77c-.56-.67-.89-1.11-.89-1.89,0-1.33.89-2.11,2.11-2.11.67,0,1.11.22,1.78,1l20.78,23.11,20.78-23.22c.56-.56,1-.89,1.67-.89,1.33,0,2.11.78,2.11,1.89,0,.67-.11,1.11-.67,1.78l-21.11,23.11,21.44,23.33Z"/>
          <path class="cls-2" d="M249.79,408.67c0,1.11-.78,1.89-1.89,1.89-.78,0-1.33-.33-1.78-1.11-2.44-4.89-7.11-7.89-13.55-7.89-9.55,0-15.22,6-15.22,16.33v6.22h26.66c1.22,0,2.11.78,2.11,1.89,0,1.22-.89,1.89-2.11,1.89h-26.66v47.33c0,1.44-.67,2.33-2,2.33s-2-.89-2-2.33v-57.33c0-12.44,7.11-20.11,18.89-20.11,8.11,0,14.22,3.56,17.22,9.67.22.44.33.89.33,1.22Z"/>
          <path class="cls-2" d="M275.67,422.78c16.33,0,27.55,11.22,27.55,27.77s-11.22,27.66-27.55,27.66-27.66-11.22-27.66-27.66,11.33-27.77,27.66-27.77ZM275.67,474.44c13.89,0,23.44-9.67,23.44-23.89s-9.55-24-23.44-24-23.55,9.67-23.55,24,9.67,23.89,23.55,23.89Z"/>
          <path class="cls-2" d="M343.77,425.12c0,1.33-.89,1.89-2.11,1.89-13.78,0-21.66,9.33-21.66,26.66v21.55c0,1.44-.67,2.33-2,2.33s-2-.89-2-2.33v-49.44c0-1.44.67-2.33,2-2.33s2,.89,2,2.33v10.55h.22c3.78-8.67,11-13.22,21.44-13.22,1.22,0,2.11.67,2.11,2Z"/>
          <path class="cls-2" d="M398.65,473.78c.56.67.67,1.11.67,1.78,0,1.11-.78,2-2,2-.78,0-1.22-.22-1.78-.89l-25.22-28.89-13.44,10.11v17.33c0,1.44-.67,2.33-2,2.33s-2-.89-2-2.33v-74.44c0-1.44.67-2.33,2-2.33s2,.89,2,2.33v52.33l38.44-29c.56-.44.89-.67,1.56-.67,1.11,0,1.89.78,1.89,2.11,0,.67-.22,1.11-.89,1.67l-24.44,18.22,25.22,28.33Z"/>
          <path class="cls-2" d="M493.41,425.78v47.55c0,15.89-10.33,25.55-27.11,25.55-10.44,0-19.44-3.44-23.55-9-.33-.44-.44-.89-.44-1.33,0-1.11.78-2,2-2,.78,0,1.22.33,1.56.78,3.89,4.89,11.11,7.78,20.44,7.78,14.44,0,23.11-8.22,23.11-21.78v-8.33h-.22c-4.22,8-12.55,13-23.78,13-16.11,0-27.22-11.22-27.22-27.66s11.11-27.55,27.22-27.55c11.22,0,19.55,5,23.78,12.89h.22v-9.89c0-1.44.78-2.33,2-2.33s2,.89,2,2.33ZM489.41,450.34c0-14.11-9.55-23.78-23.66-23.78s-23.44,9.67-23.44,23.78,9.55,23.89,23.44,23.89,23.66-9.67,23.66-23.89Z"/>
          <path class="cls-2" d="M559.07,425.78v49.44c0,1.44-.67,2.33-1.89,2.33-1.33,0-2.11-.89-2.11-2.33v-10.11h-.22c-4.22,8.33-12.67,13.11-23.78,13.11-16.11,0-27.22-11.22-27.22-27.66s11.11-27.77,27.22-27.77c11.11,0,19.55,4.78,23.78,13.11h.22v-10.11c0-1.44.78-2.33,2.11-2.33,1.22,0,1.89.89,1.89,2.33ZM555.07,450.56c0-14.22-9.55-24-23.55-24s-23.55,9.67-23.55,24,9.67,23.89,23.55,23.89,23.55-9.67,23.55-23.89Z"/>
          <path class="cls-2" d="M653.39,446.56v28.66c0,1.44-.67,2.33-2,2.33-1.22,0-2-.89-2-2.33v-28.33c0-13.33-5.67-20.33-16.44-20.33s-18,8.78-18,22.55v26.11c0,1.44-.78,2.33-2.11,2.33-1.22,0-1.89-.89-1.89-2.33v-28.33c0-13.33-5.67-20.33-16.55-20.33s-18,8.78-18,22.55v26.11c0,1.44-.67,2.33-2,2.33s-2-.89-2-2.33v-49.44c0-1.44.67-2.33,2-2.33s2,.89,2,2.33v8h.22c3.44-7,9.89-11,18.44-11,9.33,0,15.78,4.56,18.33,13.11h.22c3.22-8.22,10-13.11,19.78-13.11,13.11,0,20,8.33,20,23.78Z"/>
          <path class="cls-2" d="M719.49,449.45c0,1.33-1,2.33-2.33,2.33h-48.44c.56,13.55,10.11,22.66,24.22,22.66,8.22,0,14.89-3.44,19-8.67.56-.67,1.11-.89,1.78-.89,1.11,0,2,.89,2,1.89,0,.44-.11.89-.56,1.44-4.78,6.11-12.78,10-22.22,10-17,0-28.33-11.22-28.33-27.66s11.33-27.77,27.66-27.77,27.22,11,27.22,26.66ZM668.82,448h46.77c-1.11-12.89-10.33-21.44-23.33-21.44s-22.33,8.55-23.44,21.44Z"/>
          <path class="cls-2" d="M750.92,448c17.78.22,23.66,4.33,23.66,14.22s-8.44,16-23.33,16c-10.67,0-18.66-2.78-23.66-8.22-.33-.33-.56-.78-.56-1.44,0-1.22.89-2,1.89-2,.78,0,1.22.33,1.67.78,4.11,4.56,11.67,7.11,20.55,7.11,12.44,0,19.44-4.44,19.44-12.22,0-7.11-5-10-19.89-10.22-17-.22-22.78-4-22.78-13.22,0-9.89,8.78-16,22.89-16,8.55,0,15.89,2.56,20.66,7.22.44.44.67.89.67,1.56,0,1.22-.78,2-1.89,2-.56,0-1.11-.22-1.56-.67-4-4-10.67-6.33-17.78-6.33-11.78,0-19,4.67-19,12.22,0,6.55,4.56,9,19,9.22Z"/>
        </g>
        <g>
          <path class="cls-3" d="M413.36,68.66c-1.2-.54-2.51-.65-3.74-.39l2.82,42.87,1.98,30.11,45.16-50.43-46.22-22.16Z"/>
          <path class="cls-3" d="M510.06,211.19l50.96-63.64c2.4-2.99,1.38-7.44-2.07-9.09l-47.34-22.7-1.55,95.43Z"/>
          <path d="M316.27,261.76l43.82,25.22c2.51,1.44,5.69.89,7.56-1.32l25.84-30.65-5.48-84.25h0s0,0,0,0l26.42-29.5-4.8-72.98c-1.13.24-2.19.81-3.04,1.67l-103.65,109.99c-1.08,1.15-1.61,2.59-1.62,4.02-.02,2.09,1.06,4.16,3.09,5.27l38.99,21.39c3.05,1.67,3.73,5.75,1.4,8.33l-30,33.68c-1.02,1.14-1.52,2.55-1.52,3.95,0,2.04,1.04,4.06,2.98,5.18Z"/>
          <path class="cls-1" d="M388,170.76"/>
          <path d="M510.06,211.19l1.55-95.43-70.32,82.9,2.58,67.08,11.25,6.17c2.54,1.39,5.7.76,7.51-1.5l47.43-59.22Z"/>
          <path class="cls-3" d="M441.28,198.67l-53.28-27.9,5.48,84.25,6.6-7.78c1.86-2.19,5-2.77,7.52-1.39l36.26,19.89-2.58-67.08Z"/>
        </g>
      </g>
    </g>
  </g>
</svg>